<?xml version="1.0" encoding="utf-8"?>
<!-- Generator: Adobe Illustrator 28.3.0, SVG Export Plug-In . SVG Version: 6.00 Build 0)  -->
<svg version="1.1" id="Capa_1" xmlns="http://www.w3.org/2000/svg" xmlns:xlink="http://www.w3.org/1999/xlink" x="0px" y="0px"
	 viewBox="0 0 1080 1080" style="enable-background:new 0 0 1080 1080;" xml:space="preserve">
<style type="text/css">
	.st0{fill:#384656;}
	.st1{fill:#515454;}
</style>
<g>
	<g>
		<g>
			<g>
				<path class="st0" d="M237.8,493.8l-33.9,84.9H170c-35.2,0-63.7-28.5-63.7-63.7c0-35.2,28.5-63.7,63.7-63.7h169.4l34.7-84.9
					c0,0-208.6,0.1-210.9,0.2C84.3,370.2,21.4,435.3,21.4,515s62.8,144.8,141.7,148.4v0.2h91.7l67.8-169.8H237.8z"/>
				<path class="st0" d="M507.9,366.8v-0.2h-91.7l-67.8,169.8h84.9l33.9-84.9h33.9c35.2,0,63.7,28.5,63.7,63.7
					c0,35.2-28.5,63.7-63.7,63.7H331.7l-34.7,84.9c0,0,208.6-0.1,210.9-0.2c78.9-3.6,141.7-68.6,141.7-148.4
					S586.8,370.4,507.9,366.8z"/>
			</g>
		</g>
	</g>
	<g>
		<path class="st1" d="M710.6,573.7v21.8h54.9v21.2h-54.9v24h60.6v21.2H687V552.5h84.2v21.2H710.6z"/>
		<path class="st1" d="M781.9,645.6l13.5-16.1c10.3,8.9,22.1,14.3,36,14.3c11.8,0,17.8-5.4,17.8-12.3c0-7.8-6.4-10.2-23.1-14
			c-23.1-5.3-39.5-11.8-39.5-32.9c0-20.2,16.5-34.1,40.4-34.1c17.8,0,31.7,5.6,42.8,15.1l-12.3,16.9c-9.7-7.8-20.7-12.1-31.2-12.1
			c-10,0-16.1,5.3-16.1,11.8c0,8,6.5,10.5,23.4,14.3c23.6,5.3,39.1,12.3,39.1,32.5c0,20.8-15.8,34.7-42.5,34.7
			C811.5,663.7,794.7,657.4,781.9,645.6z"/>
		<path class="st1" d="M889.9,552.5H939c23.7,0,41.2,15.3,41.2,36.9c0,21.6-17.5,36.9-41.2,36.9h-25.8v35.5h-23.4V552.5z
			 M936.5,604.9c11.6,0,19.6-6.1,19.6-15.4c0-9.4-8-15.4-19.6-15.4h-23.2v30.9H936.5z"/>
		<path class="st1" d="M988.1,651.3l10-16.1c7.3,5.3,16.5,9.2,27.5,9.2c6.2,0,10.7-2.5,10.7-6.2c0-5.1-6-6.7-14.5-8.9
			c-16.9-4.1-29.9-8.8-30.1-25c-0.2-15.6,12.7-26.7,32.1-26.7c11.8,0,23.4,4.1,32.5,10.2l-9.4,16.6c-7.5-4.6-16.1-7.3-23.1-7.3
			c-5.7,0-9.7,2.1-9.7,4.9c0,4.5,3.3,5.7,14.5,8.7c14.2,3.7,29.9,8.4,29.9,26.4c0,16.2-13.2,26.6-33.4,26.6
			C1012,663.7,998,659.3,988.1,651.3z"/>
	</g>
</g>
</svg>
